<svg xmlns="http://www.w3.org/2000/svg" viewBox="0 0 414.05 102.99">
  <defs>
    <style>
      .cls-1 {
        fill: #00a649;
      }

      .cls-2 {
        fill: none;
        stroke: #00a649;
        stroke-linecap: round;
        stroke-miterlimit: 10;
      }

      .cls-3 {
        fill: #181716;
      }

      .cls-4 {
        fill: #7d7d7d;
      }
    </style>
  </defs>
  <title>genoscreen-services-logo</title>
  <metadata><?xpacket begin="﻿" id="W5M0MpCehiHzreSzNTczkc9d"?>
<x:xmpmeta xmlns:x="adobe:ns:meta/" x:xmptk="Adobe XMP Core 5.6-c143 79.161210, 2017/08/11-10:28:36        ">
   <rdf:RDF xmlns:rdf="http://www.w3.org/1999/02/22-rdf-syntax-ns#">
      <rdf:Description rdf:about=""
            xmlns:dc="http://purl.org/dc/elements/1.1/">
         <dc:title>
            <rdf:Alt>
               <rdf:li xml:lang="x-default">genoscreen-services-logo</rdf:li>
            </rdf:Alt>
         </dc:title>
      </rdf:Description>
   </rdf:RDF>
</x:xmpmeta>
                                                                                                    
                                                                                                    
                                                                                                    
                                                                                                    
                                                                                                    
                                                                                                    
                                                                                                    
                                                                                                    
                                                                                                    
                                                                                                    
                                                                                                    
                                                                                                    
                                                                                                    
                                                                                                    
                                                                                                    
                                                                                                    
                                                                                                    
                                                                                                    
                                                                                                    
                                                                                                    
                           
<?xpacket end="w"?></metadata>
<g id="Calque_2" data-name="Calque 2">
    <g id="Calque_1-2" data-name="Calque 1">
      <g id="Calque_2-2" data-name="Calque 2">
        <g id="Calque_1-2-2" data-name="Calque 1-2">
          <g>
            <path class="cls-1" d="M291.25,66.71a10.6,10.6,0,0,0,5.9,1.6c3.3,0,6-1.7,6-5.4,0-5.2-12.2-5.9-12.2-12.8,0-4.3,3.7-6.9,8.4-6.9a15.29,15.29,0,0,1,5.2.9l-.4,2.4a11.3,11.3,0,0,0-4.8-1c-2.7,0-5.7,1.1-5.7,4.6,0,5.3,12.2,5.4,12.2,13.1,0,5.4-4.6,7.5-8.7,7.5a15.24,15.24,0,0,1-6-1.1Z"/>
            <path class="cls-1" d="M323.75,69.41a15.55,15.55,0,0,1-5.6,1.1c-6.4,0-8.8-4.3-8.8-10.1s3.3-10.1,8.2-10.1c5.5,0,7.7,4.4,7.7,9.6v1.2H312c0,4.1,2.2,7.4,6.4,7.4a12.66,12.66,0,0,0,5.4-1.4v2.3ZM322.55,59c0-3.4-1.4-6.7-4.9-6.7S312,55.81,312,59Z"/>
            <path class="cls-1" d="M329.75,55a24.69,24.69,0,0,0-.2-4.3H332v3.7h.1c.9-2.2,2.5-4.2,5-4.2a7.39,7.39,0,0,1,1.7.2v2.5a4.65,4.65,0,0,0-1.7-.2c-3.8,0-4.8,4.3-4.8,7.8v9.6h-2.4V55Z"/>
            <path class="cls-1" d="M349.15,70.11h-2.8l-6.6-19.4h2.6l5.4,16.8h.1l5.6-16.8H356Z"/>
            <path class="cls-1" d="M361.65,45.51h-2.4v-3.2h2.4Zm-2.4,5.2h2.4v19.4h-2.4Z"/>
            <path class="cls-1" d="M380.25,53.31a10.35,10.35,0,0,0-4.1-1c-4.7,0-7.3,3.4-7.3,8.1,0,4.4,2.7,8.1,7,8.1a11.61,11.61,0,0,0,4.4-.9l.2,2.2a13.65,13.65,0,0,1-5,.7c-6.2,0-9.3-4.8-9.3-10.1,0-6,3.8-10.1,9.6-10.1a12.74,12.74,0,0,1,4.7.8Z"/>
            <path class="cls-1" d="M397.55,69.41a15.55,15.55,0,0,1-5.6,1.1c-6.4,0-8.8-4.3-8.8-10.1s3.3-10.1,8.2-10.1c5.5,0,7.7,4.4,7.7,9.6v1.2h-13.3c0,4.1,2.2,7.4,6.4,7.4a12.66,12.66,0,0,0,5.4-1.4v2.3ZM396.35,59c0-3.4-1.4-6.7-4.9-6.7s-5.7,3.5-5.7,6.7Z"/>
            <path class="cls-1" d="M402.05,67.21a11.75,11.75,0,0,0,5.1,1.2c2.3,0,4.3-1.3,4.3-3.5,0-4.6-9.3-3.9-9.3-9.5,0-3.8,3.1-5.3,6.3-5.3a14,14,0,0,1,4.8.9l-.2,2.1a10.94,10.94,0,0,0-4.3-.9c-2.5,0-4.2.8-4.2,3.2,0,3.6,9.5,3.2,9.5,9.5,0,4.1-3.8,5.5-6.8,5.5a14,14,0,0,1-5.4-.9Z"/>
          </g>
          <line class="cls-2" x1="279.05" y1="30.91" x2="279.05" y2="80.61"/>
          <g id="Calque_1-3" data-name="Calque 1-3">
            <g>
              <path class="cls-1" d="M173.05,62c-3,6.2-6.5,8.6-10.9,8.6s-10.3-3.6-10.3-12.2c0-9,6.3-13.5,12.2-13.5a12,12,0,0,1,5.8,1.7,5.11,5.11,0,0,1,2.3,3.8,2.38,2.38,0,0,1-2.37,2.4h-.13c-1.4.1-2.3-1.3-2.7-2.5l-.3-1.2c-.4-1.6-.7-2.6-3.6-2.6-2,0-7,1.7-7,9.7,0,6.3,3.8,10.4,8.4,10.4,3.9,0,6-2.3,7.8-5.1Z"/>
              <path class="cls-1" d="M179,51.81c0-3.2-1-3.3-1.9-3.3a9.43,9.43,0,0,0-1.9.2v-.8q4-1.35,8.1-3l.3.1v4.9h.1c2.6-3.9,4.4-5,6.5-5a2.74,2.74,0,0,1,3,2.45,2.53,2.53,0,0,1,0,.55,2.13,2.13,0,0,1-1.86,2.38l-.24,0c-1.9,0-2.5-1.9-3.8-1.9s-3.7,2.7-3.7,4.5v12.3c0,3.8,1.9,4,4.6,4.1v.8H175.1v-.8c3-.5,3.9-.7,3.9-3.8V51.81Z"/>
              <path class="cls-1" d="M216.15,61.51c-.5,1.7-3.7,9.1-11.6,9.1-6.1,0-10.2-4.5-10.2-12.2,0-10.1,6.8-13.4,11.2-13.4,5.1,0,9,2.8,9.6,10h-17c.7,9.7,5.1,11.9,8.7,11.9,4.9,0,7.2-3.7,8.5-5.7Zm-6.6-8.3c-.4-2.6-.9-6.3-5.2-6.3-3,0-5.1,1.5-6,6.3Z"/>
              <path class="cls-1" d="M240.45,61.51c-.5,1.7-3.7,9.1-11.6,9.1-6.1,0-10.2-4.5-10.2-12.2,0-10.1,6.8-13.4,11.2-13.4,5.1,0,9,2.8,9.6,10h-17c.7,9.7,5.1,11.9,8.7,11.9,4.9,0,7.2-3.7,8.5-5.7Zm-6.7-8.3c-.4-2.6-.9-6.3-5.2-6.3-3,0-5.1,1.5-6,6.3Z"/>
              <path class="cls-1" d="M245.85,51.61c0-3.4-1-3.5-1.9-3.5a4.57,4.57,0,0,0-1.6.2v-.9a72.45,72.45,0,0,0,7.5-2.5l.4.1v4.3c2.7-2.5,4.8-4.4,8-4.4,2.5,0,6.4,1.5,6.4,8.2v12.5c0,2.6.7,3.4,3.3,3.6V70h-11.4v-.8c2-.2,3.4-.4,3.4-4.6V53.21c0-3.3-1-5.3-4.2-5.3-1.6,0-3.3,1.1-5.4,3.1v15.3c0,1.8.8,2.7,3.6,2.8v.8h-11.6v-.8c2.6-.2,3.4-.9,3.4-4.1V51.61Z"/>
            </g>
            <g>
              <path class="cls-3" d="M61.65,61.71c-.5,1.7-3.7,9.1-11.6,9.1-6.1,0-10.2-4.5-10.2-12.2,0-10.1,6.8-13.4,11.2-13.4,5.1,0,9,2.8,9.6,10h-17c.7,9.7,5.1,11.9,8.7,11.9,4.9,0,7.2-3.7,8.5-5.7Zm-6.6-8.3c-.4-2.6-.9-6.3-5.2-6.3-3,0-5.1,1.5-6,6.3Z"/>
              <path class="cls-3" d="M67.15,51.81c0-3.4-1-3.5-1.9-3.5a4.57,4.57,0,0,0-1.6.2v-.9a72.45,72.45,0,0,0,7.5-2.5l.4.1v4.3c2.7-2.5,4.8-4.4,8-4.4,2.5,0,6.4,1.5,6.4,8.2v12.5c0,2.6.7,3.4,3.3,3.6v.8H77.85v-.8c2-.2,3.4-.4,3.4-4.6V53.51c0-3.3-1-5.3-4.2-5.3-1.6,0-3.3,1.1-5.4,3.1v15.4c0,1.8.8,2.7,3.6,2.8v.8H63.65v-.8c2.6-.2,3.4-.9,3.4-4.1Z"/>
              <path class="cls-3" d="M115.75,57.81c0,5.4-3.8,13-12.1,13-7,0-12-5.6-12-13,0-6.7,4.5-12.7,11.8-12.7S115.75,49.91,115.75,57.81Zm-4.9,1.6c0-6.8-2.8-12.7-7.8-12.7-3.4,0-6.4,2.8-6.4,8.5,0,4,1.3,14.1,7.8,14.1C107.15,69.31,110.85,67.21,110.85,59.41Z"/>
            </g>
            <path class="cls-3" d="M32.25,35.21H31a2.21,2.21,0,0,1-1.9,1.7s-2.6-.4-3.8-.7c0,0-6.2-1.6-10.8-.6A16.74,16.74,0,0,0,.35,49.31s-1.9,8.3,3.1,14.1c0,0,5,7.2,16.5,6.9,0,0,8.4-.1,13.3-3.5v-7.4s-.1-2.9,3.9-2.9v-1.1h-14v1.1s4.6-.2,4.7,2.7v6.7s-.9,1.9-7.7,2.3c0,0-6.8.3-10.9-5.3a18.78,18.78,0,0,1-2.8-10.6s-.7-14.6,12.9-15.2c0,0,8.3-.9,12,8.8h1.4Z"/>
          </g>
          <g id="Calque_3" data-name="Calque 3">
            <path class="cls-4" d="M139,66.61H125.7a1.14,1.14,0,0,0,.1-.6c.1-.5.3-1,.4-1.6h12.4a.7.7,0,0,0,0-1.4h-12c.3-.8.5-1.5.8-2.3H137a.7.7,0,0,0,0-1.4h-9a91.3,91.3,0,0,1,6.7-13.1c4.3-7.4,7.4-15.3,6.9-24-.4-7.7-4.3-15.7-8.7-21.9-.5-.7-1.8-.1-1.2.7,4.8,6.7,8.6,15.1,8.5,23.4a35.34,35.34,0,0,1-.4,4.7H126.9a.75.75,0,0,0,0,1.5h12.6c-.2.7-.3,1.4-.5,2H124.6a.7.7,0,1,0,0,1.4h14a.41.41,0,0,0-.1.3c-.2.7-.4,1.3-.6,1.9H125.3a.7.7,0,1,0,0,1.4h12.1a15.63,15.63,0,0,1-1.1,2.3h-7.4a.66.66,0,0,0-.65.65.66.66,0,0,0,.65.65h6.7c-.9,1.8-2,3.6-3,5.4-3.8,6.7-8,14.4-8.8,22.1-.8,7.9,2.4,16.3,7.3,22.4.6.7,1.6-.3,1-1a31.59,31.59,0,0,1-6.9-18.7h11.9a.7.7,0,1,0,0-1.4H125.3c.1-.7.1-1.4.2-2.1H139C139.85,68,139.85,66.61,139,66.61Z"/>
          </g>
          <g id="Calque_2-2-2" data-name="Calque 2-2">
            <path class="cls-1" d="M115,38.91c.2,2.5,1.5,10,14.7,14.5,21.2,7.2,11.8,18.3,6.5,20.9-2.2,1-4,.9-4,2-.2,2.8,13.9-.1,17-10,1.8-5.8,1.9-15.6-14.9-20.6-6-1.8-16.6-7.5-12.1-14.9,1.9-3.1,5.3-4.2,7.6-4.8,1.6-.5,1.4-1.1,1.2-1.7C130.25,22.21,113.75,24.61,115,38.91Z"/>
          </g>
        </g>
      </g>
      <path class="cls-1" d="M276.87,102.51a5.12,5.12,0,0,1-1.71-1.89,6.36,6.36,0,0,1-.67-2.42,9.53,9.53,0,0,1,.32-3.21,17.18,17.18,0,0,1,1.26-3.36,21.35,21.35,0,0,1,1.92-3.2,19.65,19.65,0,0,1,2.31-2.72,13.76,13.76,0,0,1,2.44-1.89,5,5,0,0,1,2.27-.76,2,2,0,0,1,1.19.09,3.72,3.72,0,0,1,1.1.65,4,4,0,0,1,.82,1,2.42,2.42,0,0,1,.37,1,1.5,1.5,0,0,1-.17.88,1.48,1.48,0,0,1-.76.63l0,0a.82.82,0,0,1-.31.08.93.93,0,0,1-.34-.05.69.69,0,0,1-.28-.15.31.31,0,0,1-.12-.23l-.17-2-.21,0-.2,0-.12,0a9.46,9.46,0,0,0-4,2.1,11.53,11.53,0,0,0-2.66,3.53A35.79,35.79,0,0,0,277,95.88a9.24,9.24,0,0,0-.52,3.16,1.53,1.53,0,0,0,.42,1.06,1.38,1.38,0,0,0,.93.31,5,5,0,0,0,1.78-.39,15.39,15.39,0,0,0,2.06-1,23.88,23.88,0,0,0,2.08-1.36,21,21,0,0,0,1.83-1.49,11.9,11.9,0,0,0,1.33-1.4,2.46,2.46,0,0,0,.58-1,3.82,3.82,0,0,0-.66.12c-.22.07-.42.13-.61.17h0c-.15.07-.44.18-.85.32l-1.29.46-1.27.43-.86.3a1.05,1.05,0,0,1-.63,0,1.38,1.38,0,0,1-.51-.27,1.29,1.29,0,0,1-.33-.46,1.55,1.55,0,0,1-.14-.53,1.19,1.19,0,0,1,.12-.65.72.72,0,0,1,.52-.38,6.11,6.11,0,0,0,.82-.26l1.54-.56c.61-.23,1.27-.46,2-.71s1.41-.49,2.1-.71,1.36-.4,2-.55a7.31,7.31,0,0,1,1.56-.21,1.6,1.6,0,0,1,1.19.36c.22.23.21.63,0,1.19l-.88,1-.89,1-.94,1c-.31.35-.58.66-.83.93s-.43.46-.56.58v0c0,.06-.23.23-.52.5l-1,.94-1.13,1c-.39.34-.69.59-.93.77s-.62.57-1.07,1a16.71,16.71,0,0,1-1.47,1.15,11.3,11.3,0,0,1-1.69,1,4.31,4.31,0,0,1-1.74.4,2.71,2.71,0,0,1-.82-.11,2.58,2.58,0,0,1-.77-.37"/>
      <path class="cls-1" d="M298.83,90.89s-.05.11-.21.25l-.61.53-.83.68-.89.69c-.28.22-.54.41-.77.57a3.16,3.16,0,0,1-.47.31,2.12,2.12,0,0,0,.78-.11,8.28,8.28,0,0,0,.93-.35,7.44,7.44,0,0,0,1-.52,7.14,7.14,0,0,0,.83-.61,3,3,0,0,0,.59-.6.88.88,0,0,0,.2-.54s-.09-.06-.25-.11Zm-5.1,10a2.9,2.9,0,0,1-1.68-1.23,4.28,4.28,0,0,1-.58-1.82,9.73,9.73,0,0,1,0-1.08,6.36,6.36,0,0,1,.18-1.09c.15-.16.3-.34.46-.53l.46-.59c.45-.54.95-1.12,1.49-1.74s1.13-1.23,1.73-1.81a17.61,17.61,0,0,1,1.88-1.61,9.72,9.72,0,0,1,2-1.14,1.15,1.15,0,0,1,.75-.09,1.08,1.08,0,0,1,.55.4,2.06,2.06,0,0,1,.34.73,4.53,4.53,0,0,1,.16.92,5.85,5.85,0,0,1,0,.84,6.94,6.94,0,0,1-.08.81c-.05.25-.1.48-.16.68a1.2,1.2,0,0,1-.2.44,4.13,4.13,0,0,1-1.11.88l-1.76,1c-.51.28-1,.57-1.59.89s-1,.63-1.46.94a6.82,6.82,0,0,0-1.07.9,1.09,1.09,0,0,0-.38.79c0,.19.18.38.5.56a1,1,0,0,0,.24,0h.24a9.92,9.92,0,0,0,1.48-.12c.53-.09,1.08-.19,1.64-.33s1.11-.28,1.67-.44l1.58-.47,1.12-.3c.39-.1.71-.18.95-.26l.84.63A4.53,4.53,0,0,1,302.43,99a12.71,12.71,0,0,1-2.22,1.07,17.62,17.62,0,0,1-2.51.72,11.52,11.52,0,0,1-2.34.27,7.88,7.88,0,0,1-.86,0,4.57,4.57,0,0,1-.77-.15"/>
      <path class="cls-1" d="M313.13,100.43a4.64,4.64,0,0,1-.06-1.28,8.84,8.84,0,0,1,.22-1.25,10.39,10.39,0,0,1,.4-1.23l.51-1.19c.28-.66.53-1.3.74-1.91a4.18,4.18,0,0,0,.25-1.79,2.69,2.69,0,0,0-.11-.62,2.34,2.34,0,0,0-1.42.37A11.17,11.17,0,0,0,312,92.74c-.59.51-1.18,1.08-1.79,1.7s-1.19,1.26-1.75,1.87-1.13,1.21-1.65,1.75a12.16,12.16,0,0,1-1.43,1.26,1.91,1.91,0,0,1-1.12.45c-.33,0-.57-.26-.74-.72,0,0,.09-.25.28-.7s.44-1,.73-1.68.62-1.39,1-2.18.68-1.52,1-2.21.6-1.25.84-1.71a3.16,3.16,0,0,1,.48-.77,2.69,2.69,0,0,1,.79.72,1.51,1.51,0,0,1,.26.69,1.86,1.86,0,0,1-.05.62c-.05.2-.1.4-.16.59l-.06.26c0,.09-.05.18-.07.26l1.57-1.09c.61-.41,1.24-.81,1.89-1.19a15.19,15.19,0,0,1,1.9-.94,4.35,4.35,0,0,1,1.65-.39,1.77,1.77,0,0,1,1.16.36,1.8,1.8,0,0,1,.53,1.29,5,5,0,0,1-.11,1.31,12.4,12.4,0,0,1-.51,1.89l0-.05c0,.06-.07.17-.13.34s-.13.37-.2.59l-.27.75-.3.8c-.16.47-.33.92-.49,1.36s-.26.71-.29.83a.25.25,0,0,0,0,.13.32.32,0,0,0,0,.14,1,1,0,0,1,0,.17,7.82,7.82,0,0,1-.09.9,1.6,1.6,0,0,1-.36.8.46.46,0,0,1-.37.17,1,1,0,0,1-.4-.12,2,2,0,0,1-.33-.24,1,1,0,0,1-.18-.17Z"/>
      <path class="cls-1" d="M320.17,98.79a.78.78,0,0,0,.79.61,2.54,2.54,0,0,0,1.16-.33,7.81,7.81,0,0,0,1.31-.87A13.29,13.29,0,0,0,324.72,97a10.16,10.16,0,0,0,1.08-1.41,7.74,7.74,0,0,0,.74-1.42,2.9,2.9,0,0,0,.23-1.25.9.9,0,0,0-.39-.68,2,2,0,0,0-1.19-.25,5.48,5.48,0,0,0-.85.07l-.21.21c-.08.06-.16.14-.26.23-.36.33-.77.73-1.23,1.18a15.7,15.7,0,0,0-1.28,1.44,8,8,0,0,0-1,1.57,3,3,0,0,0-.32,1.55,1.91,1.91,0,0,0,.11.57m-.11,1.93a2.89,2.89,0,0,1-1.4-1,3,3,0,0,1-.53-1.49,4.56,4.56,0,0,1,.19-1.64,8.31,8.31,0,0,1,.7-1.75,12,12,0,0,1,1.05-1.7,15.78,15.78,0,0,1,1.22-1.48,8.3,8.3,0,0,1,1.25-1.06,2.85,2.85,0,0,1,1.1-.49l.49,0,.49,0a4.75,4.75,0,0,1,1.59.24,3.15,3.15,0,0,1,1.12.65,2.73,2.73,0,0,1,.69,1,4.1,4.1,0,0,1,.3,1.24,5.89,5.89,0,0,1-.14,1.7,8.64,8.64,0,0,1-.63,1.76,9.82,9.82,0,0,1-1.05,1.68,8.35,8.35,0,0,1-1.36,1.42,6.43,6.43,0,0,1-1.62,1,4.52,4.52,0,0,1-3.46,0"/>
      <path class="cls-1" d="M346.17,100.73a.55.55,0,0,1-.49,0,1.92,1.92,0,0,1-.54-.26,2.53,2.53,0,0,1-.47-.36,2.23,2.23,0,0,1-.23-.23l.09.22a1.66,1.66,0,0,1-.36-.6,3.13,3.13,0,0,1-.14-.69,3.54,3.54,0,0,1,.12-1.21,8.09,8.09,0,0,1,.37-1.06c.08-.18.2-.49.37-.92s.35-.9.55-1.39l.57-1.36c.18-.43.31-.74.4-.91V91.9a4,4,0,0,0-1.14.68c-.5.38-1.06.85-1.67,1.41s-1.24,1.15-1.91,1.8-1.27,1.26-1.84,1.83-1.06,1.09-1.47,1.53-.69.73-.81.88c-.52.19-.9.16-1.13-.09a2,2,0,0,1-.41-1.22,6.34,6.34,0,0,1,0-1.22,14.19,14.19,0,0,1,.19-1.42c.08-.49.18-1,.27-1.4s.18-.85.25-1.19a.59.59,0,0,0,.05-.2.43.43,0,0,1,.05-.17,1.81,1.81,0,0,0-.8.43,7,7,0,0,0-.86.91c-.29.37-.58.77-.87,1.22s-.58.9-.87,1.35-.56.89-.84,1.3-.56.79-.82,1.11a4.34,4.34,0,0,1-.79.77,1.2,1.2,0,0,1-1.84-.34.67.67,0,0,1-.06-.32.69.69,0,0,1,0-.31c.07-.18.18-.45.32-.82l.51-1.23c.18-.46.39-.94.6-1.44s.42-1,.62-1.43.37-.87.52-1.23.27-.63.34-.8v0c.08-.19.2-.43.36-.73s.34-.59.51-.86l.47-.7a1.43,1.43,0,0,1,.23-.3h.87a2.41,2.41,0,0,1,.23,1.58,2.69,2.69,0,0,1-.22.64l-.31.56c-.06.13-.13.26-.2.38l-.18.36c.65-.61,1.22-1.13,1.71-1.57s.92-.78,1.29-1a6.38,6.38,0,0,1,.9-.59,1.53,1.53,0,0,1,.6-.17.76.76,0,0,1,.55.17.86.86,0,0,1,.22.5,3.37,3.37,0,0,1,0,.78c0,.3-.08.62-.14,1l0,0c-.06.47-.13,1-.19,1.49a8,8,0,0,0,0,1.55l0,.37c.14-.12.29-.24.44-.38s.33-.29.51-.43l.75-.62.48-.39.81-.66,1-.84.94-.75a4.08,4.08,0,0,1,.53-.39h0l.44-.34.75-.54.77-.54c.25-.17.43-.28.54-.34l0,0a1.73,1.73,0,0,1,.9-.29,1.22,1.22,0,0,1,.94.4,1.69,1.69,0,0,1,.42,1,1.55,1.55,0,0,1,0,.37c0,.13,0,.28-.06.44l-.33.72c-.11.23-.22.47-.32.7-.3.63-.58,1.25-.84,1.85a15.52,15.52,0,0,0-.69,1.87,12.42,12.42,0,0,0-.45,2,11.12,11.12,0,0,0-.07,2.18"/>
      <path class="cls-1" d="M353,88a.74.74,0,0,1-.05-.25,1.64,1.64,0,0,1,0-.39c0-.14,0-.27,0-.39a1.18,1.18,0,0,1,.05-.28l.49-.15a1.63,1.63,0,0,1,.35-.05,1.13,1.13,0,0,1,.92.35,1.36,1.36,0,0,1,.33.83,1.49,1.49,0,0,1-.22.94.78.78,0,0,1-.69.44,1,1,0,0,1-.6-.22A2.18,2.18,0,0,1,353,88Zm-3.51,12.09c.37-1.59.73-3,1.09-4.09a29.56,29.56,0,0,1,1-2.81,9,9,0,0,1,.89-1.61q.39-.51.66-.51t.45.69a6.43,6.43,0,0,1-.09,2,24.62,24.62,0,0,1-.79,3.08,31,31,0,0,1-1.65,4,1.43,1.43,0,0,1-.83.07,1,1,0,0,1-.71-.52Z"/>
      <path class="cls-1" d="M358.14,101.06a3.58,3.58,0,0,1-1.87-1.21A3.52,3.52,0,0,1,355.6,98a5.52,5.52,0,0,1,.27-2.11,11.72,11.72,0,0,1,1-2.24,17.65,17.65,0,0,1,1.43-2.17,15.69,15.69,0,0,1,1.65-1.84,9.13,9.13,0,0,1,1.68-1.28,3.09,3.09,0,0,1,1.46-.47,1.54,1.54,0,0,1,1,.33,2,2,0,0,1,.61,1.08,2.16,2.16,0,0,1-.1,1.24,4.56,4.56,0,0,1-.64,1.24,4.85,4.85,0,0,1-.89,1,1.45,1.45,0,0,1-.88.4.82.82,0,0,1-.57-.23,1.25,1.25,0,0,1-.4-.73,4.37,4.37,0,0,1,.56-1c.2-.27.4-.54.58-.82a1.08,1.08,0,0,0-.73.3,6.12,6.12,0,0,0-1,1A15,15,0,0,0,359.5,93a15.24,15.24,0,0,0-1,1.65,9.57,9.57,0,0,0-.68,1.7,4.28,4.28,0,0,0-.2,1.52,1.85,1.85,0,0,0,.18.68,1.44,1.44,0,0,0,.45.55,6,6,0,0,0,1.62-.17,17.42,17.42,0,0,0,1.89-.52q1-.31,2-.72l1.86-.77h0c.82-.34,1.53-.62,2.14-.84a2,2,0,0,1,1.32-.16.53.53,0,0,1,.23.78,3.72,3.72,0,0,1-1,1.08,13.25,13.25,0,0,1-1.91,1.2,21,21,0,0,1-2.39,1.11,21.19,21.19,0,0,1-2.49.81,9,9,0,0,1-2.22.31,3.28,3.28,0,0,1-1.08-.15"/>
      <path class="cls-1" d="M369.68,100.39a.67.67,0,0,1-.39-.54,1,1,0,0,1,.26-.64,3.72,3.72,0,0,1,.76-.67,12.73,12.73,0,0,1,1.08-.68c.4-.23.81-.45,1.25-.66l1.24-.61h0L375,96a6.94,6.94,0,0,0,.64-.36c.47-.48.7-.82.68-1s-.11-.24-.31-.34a2.9,2.9,0,0,0-.76-.27c-.32-.08-.66-.15-1.05-.22L373,93.64c-.44,0-.87-.12-1.3-.2a8.81,8.81,0,0,1-1.13-.29,3.21,3.21,0,0,1-.83-.42.88.88,0,0,1-.34-.65,1.19,1.19,0,0,1,.25-.74,4,4,0,0,1,.95-.9l0,0c.22-.18.55-.43,1-.75s.93-.66,1.45-1,1-.66,1.56-.95A5.9,5.9,0,0,1,376,87.2a1.08,1.08,0,0,1,.59,0,2,2,0,0,1,.56.23,2,2,0,0,1,.44.38.82.82,0,0,1,.2.44.86.86,0,0,1-.48.83c-.24.15-.47.29-.71.42l-.71.4-2,1.15c-.62.36-1.18.72-1.66,1a26.66,26.66,0,0,1,3,.47,10,10,0,0,1,2,.65,3.38,3.38,0,0,1,1.13.8,1.54,1.54,0,0,1,.4.92,1.82,1.82,0,0,1-.54,1.35,8.07,8.07,0,0,1-1.55,1.33,18.55,18.55,0,0,1-2.09,1.2c-.76.37-1.49.69-2.17,1a13.25,13.25,0,0,1-1.79.55c-.51.12-.83.13-.95,0Z"/>
      <path class="cls-1" d="M153.16,100.37a2.06,2.06,0,0,1,0-.54c0-.21,0-.44,0-.66s.06-.43.09-.61l.07-.33q1.13-3.57,2.28-7.18c.77-2.41,1.52-4.8,2.27-7.18a1.61,1.61,0,0,1,.49-.81.34.34,0,0,1,.46.1,2,2,0,0,1,.36.73,4.43,4.43,0,0,1,.18,1,3.53,3.53,0,0,1,0,.46,1.41,1.41,0,0,1-.08.4c-.11.3-.21.6-.33.89s-.21.59-.32.91c-.77,2.14-1.52,4.32-2.22,6.53a48,48,0,0,0-1.64,6.93,1.16,1.16,0,0,1-.62.23.8.8,0,0,1-.48-.14,1.17,1.17,0,0,1-.33-.37,1.77,1.77,0,0,1-.19-.43Z"/>
      <path class="cls-1" d="M167.52,101.38a4.42,4.42,0,0,1,0-1.2A7,7,0,0,1,167.7,99a8.25,8.25,0,0,1,.4-1.15c.16-.38.32-.76.49-1.13.27-.62.52-1.22.72-1.79a4.06,4.06,0,0,0,.26-1.69,2.27,2.27,0,0,0-.1-.58,2.13,2.13,0,0,0-1.33.35,9.16,9.16,0,0,0-1.59,1.14c-.56.47-1.13,1-1.71,1.6s-1.14,1.18-1.67,1.76-1.08,1.14-1.58,1.65a11.73,11.73,0,0,1-1.36,1.19,1.76,1.76,0,0,1-1.07.41c-.3,0-.53-.23-.68-.67,0,0,.09-.24.28-.66s.42-1,.7-1.58.61-1.31.95-2.06.67-1.43,1-2.07.58-1.18.82-1.62a2.92,2.92,0,0,1,.46-.72,2.55,2.55,0,0,1,.73.67,1.27,1.27,0,0,1,.24.66,1.93,1.93,0,0,1,0,.58c-.05.19-.1.38-.16.55s0,.17-.07.25l-.06.25,1.49-1c.58-.39,1.18-.76,1.79-1.12a16.62,16.62,0,0,1,1.8-.89,4.07,4.07,0,0,1,1.57-.37,1.42,1.42,0,0,1,1.56,1.56,4.87,4.87,0,0,1-.12,1.23,11.19,11.19,0,0,1-.51,1.78l0,0-.12.31c-.06.16-.13.35-.2.56s-.16.45-.26.7-.2.51-.29.76c-.17.44-.33.86-.48,1.28s-.26.67-.29.78a.22.22,0,0,0,0,.12.61.61,0,0,0,0,.14.38.38,0,0,1,0,.15,5.69,5.69,0,0,1-.1.86,1.38,1.38,0,0,1-.35.75.46.46,0,0,1-.35.16.77.77,0,0,1-.36-.12,1.81,1.81,0,0,1-.32-.22.7.7,0,0,1-.16-.17Z"/>
      <path class="cls-1" d="M181.2,101.31a4.49,4.49,0,0,1,0-1.21,8,8,0,0,1,.22-1.17,9.94,9.94,0,0,1,.4-1.16c.16-.37.32-.75.49-1.12.28-.62.52-1.22.73-1.8a4,4,0,0,0,.25-1.69,2.82,2.82,0,0,0-.09-.57,2.14,2.14,0,0,0-1.34.34,10.79,10.79,0,0,0-1.59,1.15c-.56.47-1.13,1-1.71,1.6s-1.13,1.18-1.67,1.76-1.08,1.14-1.58,1.64a10.19,10.19,0,0,1-1.37,1.19,1.81,1.81,0,0,1-1.06.42c-.3,0-.53-.24-.68-.68t.27-.66c.19-.42.42-.95.71-1.57s.61-1.31,1-2.06.66-1.43,1-2.07.58-1.18.82-1.62a3.37,3.37,0,0,1,.46-.73,2.71,2.71,0,0,1,.73.68,1.27,1.27,0,0,1,.24.66,1.58,1.58,0,0,1-.05.57c0,.2-.1.38-.16.56L177,94l-.06.25,1.49-1c.58-.39,1.18-.77,1.79-1.12a17.88,17.88,0,0,1,1.81-.9,4.14,4.14,0,0,1,1.56-.36,1.59,1.59,0,0,1,1.08.34,1.66,1.66,0,0,1,.48,1.21,4.87,4.87,0,0,1-.11,1.24,13.71,13.71,0,0,1-.51,1.77l0,0c0,.06-.07.16-.13.32s-.12.35-.2.56-.16.45-.26.7l-.29.75c-.16.44-.32.87-.48,1.28s-.26.68-.29.79a.21.21,0,0,0,0,.12.29.29,0,0,0,0,.13s0,.1,0,.16c0,.26-.05.54-.1.85a1.62,1.62,0,0,1-.35.76.43.43,0,0,1-.35.15.7.7,0,0,1-.37-.11,2.57,2.57,0,0,1-.32-.22.7.7,0,0,1-.16-.17Z"/>
      <path class="cls-1" d="M188.31,99.2a.73.73,0,0,0,.74.57,2.56,2.56,0,0,0,1.1-.31,7.57,7.57,0,0,0,1.24-.82,10.17,10.17,0,0,0,1.23-1.15,9.87,9.87,0,0,0,1-1.33,7,7,0,0,0,.71-1.34,2.69,2.69,0,0,0,.23-1.17.79.79,0,0,0-.36-.64,2,2,0,0,0-1.12-.24,5.91,5.91,0,0,0-.79.06l-.21.2-.24.22c-.35.32-.74.69-1.18,1.12a14.26,14.26,0,0,0-1.23,1.35,7.65,7.65,0,0,0-.94,1.48,2.89,2.89,0,0,0-.33,1.46,2.27,2.27,0,0,0,.1.54m-.13,1.81a2.68,2.68,0,0,1-1.31-1,2.79,2.79,0,0,1-.47-1.41,4.48,4.48,0,0,1,.19-1.54,9.65,9.65,0,0,1,.69-1.65,12.37,12.37,0,0,1,1-1.61,13.9,13.9,0,0,1,1.18-1.38,7.61,7.61,0,0,1,1.19-1,2.77,2.77,0,0,1,1-.46l.46,0h.46a4.48,4.48,0,0,1,1.5.22,3,3,0,0,1,1,.61,2.62,2.62,0,0,1,.64.93,3.86,3.86,0,0,1,.26,1.17,5.49,5.49,0,0,1-.15,1.59,7.84,7.84,0,0,1-.63,1.66,9.12,9.12,0,0,1-1,1.58A8.27,8.27,0,0,1,193,100a5.83,5.83,0,0,1-1.55.92,4.26,4.26,0,0,1-3.26.05"/>
      <path class="cls-1" d="M199.25,100.65a2.12,2.12,0,0,1-1-1.16,5.64,5.64,0,0,1-.36-1.72,10,10,0,0,1,0-1.34c0-.46.07-.92.12-1.36s.12-.88.19-1.28l.18-1.06,0,0c0-.14,0-.29.07-.46s.06-.28.08-.37a.64.64,0,0,1,.55-.08,1.7,1.7,0,0,1,.51.24,5.8,5.8,0,0,1,.53.49c0,.16,0,.32,0,.5s0,.33,0,.47q0,.66,0,1.26c0,.39,0,.79,0,1.19s-.05.83-.06,1.25,0,.83,0,1.24l0,.6c.09,0,.32-.09.66-.38s.75-.7,1.23-1.19,1-1.06,1.54-1.68,1.08-1.23,1.6-1.84l1.33-1.5c.45-.49.86-.93,1.25-1.31a8.88,8.88,0,0,1,1-.93,1.35,1.35,0,0,1,.72-.36.52.52,0,0,1,.56.37,2.36,2.36,0,0,1-.1,1.24A8.47,8.47,0,0,0,209,92.75c-.39.51-.81,1.08-1.25,1.7s-1.06,1.46-1.64,2.23a21.3,21.3,0,0,1-1.8,2.12,10.64,10.64,0,0,1-1.86,1.59,3.36,3.36,0,0,1-1.86.62,2.3,2.3,0,0,1-1.3-.36"/>
      <path class="cls-1" d="M210.27,99.86a.54.54,0,0,0,.54.36,2.82,2.82,0,0,0,1.21-.35,7.43,7.43,0,0,0,1.41-1,11.35,11.35,0,0,0,1.43-1.43,11.86,11.86,0,0,0,1.23-1.74,9.77,9.77,0,0,0,.83-2,5.8,5.8,0,0,0,.21-2q0-.18,0-.3a1.47,1.47,0,0,0-.06-.32.71.71,0,0,0-.32-.07,2.57,2.57,0,0,0-1.32.45,9.36,9.36,0,0,0-1.47,1.19,15,15,0,0,0-1.45,1.66,16.83,16.83,0,0,0-1.22,1.85,11.62,11.62,0,0,0-.83,1.78,3.52,3.52,0,0,0-.25,1.46.8.8,0,0,0,.09.37M217,98.55s-.07-.08-.07-.1v0s0,0,0,0,0,0-.09-.08a2,2,0,0,0-.39.37l-1,.92a10.77,10.77,0,0,1-1.19.92,7.51,7.51,0,0,1-1.34.72,3.91,3.91,0,0,1-1.45.29,3.53,3.53,0,0,1-2-.65,1.84,1.84,0,0,1-.65-.74,2.59,2.59,0,0,1-.27-1,5.09,5.09,0,0,1,.22-1.78,11.19,11.19,0,0,1,.82-2,13,13,0,0,1,1.3-2,12.18,12.18,0,0,1,1.62-1.73,8.28,8.28,0,0,1,1.82-1.22,4.28,4.28,0,0,1,1.88-.47,3.65,3.65,0,0,1,1.33.25,3.77,3.77,0,0,1,1.23.83,2.65,2.65,0,0,1,.6.81,2.43,2.43,0,0,1,.22.86,3,3,0,0,1-.13,1.15c-.12.39-.26.78-.4,1.17s-.32.92-.45,1.4a2.77,2.77,0,0,0,0,1.4.85.85,0,0,0,.69.69s0,0,0,0h.12l.22,0a5.31,5.31,0,0,0,1.42-.26q.87-.26,1.8-.63t1.8-.81c.58-.28,1.06-.54,1.44-.76.73-.09,1.19-.07,1.36.08s.16.37-.06.65a4.69,4.69,0,0,1-1.13,1,15.78,15.78,0,0,1-4,1.86,9.19,9.19,0,0,1-2.2.41,4.18,4.18,0,0,1-1.85-.27A2,2,0,0,1,217,98.55"/>
      <path class="cls-1" d="M225.91,100.59a1.25,1.25,0,0,1-.09-.47.79.79,0,0,1,.07-.41c0-.08,0-.15.05-.21l.24-1c.09-.44.19-.88.28-1.32s.19-.85.27-1.22l.19-.82a0,0,0,0,0,0-.06s0,0,0-.06a2,2,0,0,1,.1-.46,1.22,1.22,0,0,0,.06-.47,5.27,5.27,0,0,0-.73.13l-.66.15a4,4,0,0,1-.71.06,1.79,1.79,0,0,1-.86-.21,1.77,1.77,0,0,1-.66-.77,1.81,1.81,0,0,1,.42-.72,2,2,0,0,1,.6-.42,2.71,2.71,0,0,1,.7-.21c.24,0,.5-.08.75-.1a9.83,9.83,0,0,0,1.07-.19,1.16,1.16,0,0,0,.74-.46c.07-.22.15-.47.22-.74s.16-.57.23-.89.23-.88.37-1.37.29-1,.44-1.47.32-1,.49-1.44a11.44,11.44,0,0,1,.58-1.31.63.63,0,0,1,.71-.11,1.49,1.49,0,0,1,.5.55,2.89,2.89,0,0,1,.28.76,2.19,2.19,0,0,1,.06.52h0a5.14,5.14,0,0,1-.27,1l-.42,1c-.19.48-.36,1-.52,1.47a3.92,3.92,0,0,0-.2,1.4c0,.11,0,.16,0,.14s0,0,0,.13l4.86,0a.51.51,0,0,1,.4.23l.28.39a.67.67,0,0,1,.08.64.8.8,0,0,1-.49.36,4.68,4.68,0,0,1-.89.15l-1.15,0-1.25.06a8.45,8.45,0,0,0-1.19.14,3.79,3.79,0,0,0-.95.3,1,1,0,0,0-.52.53c-.35,1.09-.67,2.17-1,3.26s-.55,2.18-.79,3.28a2.52,2.52,0,0,1-.29.39,1.75,1.75,0,0,1-.49.38.76.76,0,0,1-.55.07c-.19,0-.35-.24-.46-.57Z"/>
      <path class="cls-1" d="M237.81,88.92a1,1,0,0,1-.06-.24,2.07,2.07,0,0,1-.05-.37v-.37a.88.88,0,0,1,0-.26,4.25,4.25,0,0,1,.46-.14,1.32,1.32,0,0,1,.32-.05,1.13,1.13,0,0,1,.89.33,1.41,1.41,0,0,1,.36.78,1.37,1.37,0,0,1-.15.89.68.68,0,0,1-.62.41,1,1,0,0,1-.58-.2,2.29,2.29,0,0,1-.59-.74Zm-2.54,11.38c.24-1.49.5-2.78.77-3.85a22.43,22.43,0,0,1,.79-2.64,7.4,7.4,0,0,1,.74-1.52c.22-.33.42-.49.59-.49s.36.22.46.66a5.75,5.75,0,0,1,0,1.86,21.18,21.18,0,0,1-.55,2.91,27.44,27.44,0,0,1-1.3,3.77,1.33,1.33,0,0,1-.78.06.94.94,0,0,1-.7-.49Z"/>
      <path class="cls-1" d="M242.84,100.41a2.12,2.12,0,0,1-1-1.16,5.71,5.71,0,0,1-.36-1.72,10,10,0,0,1,0-1.34c0-.46.07-.92.12-1.37s.12-.87.19-1.27.13-.76.18-1.07l0,0c0-.14,0-.29.07-.46s.06-.29.08-.37a.64.64,0,0,1,.55-.08,1.7,1.7,0,0,1,.51.24,5.8,5.8,0,0,1,.53.49c0,.15,0,.32,0,.5s0,.33,0,.47q0,.66,0,1.26c0,.39,0,.79,0,1.19s-.05.83-.05,1.25,0,.83,0,1.24l0,.6c.09,0,.32-.09.66-.39s.75-.69,1.23-1.18,1-1.06,1.54-1.68,1.08-1.23,1.6-1.84.89-1,1.34-1.5.85-.93,1.24-1.32a11.19,11.19,0,0,1,1-.93,1.4,1.4,0,0,1,.72-.35.52.52,0,0,1,.56.37,2.33,2.33,0,0,1-.1,1.23,9.16,9.16,0,0,0-1.11,1.26c-.39.51-.81,1.08-1.25,1.7s-1.06,1.46-1.64,2.23a22.5,22.5,0,0,1-1.8,2.12,11.09,11.09,0,0,1-1.86,1.59,3.36,3.36,0,0,1-1.86.62,2.3,2.3,0,0,1-1.3-.36"/>
      <path class="cls-1" d="M259.9,91.27s0,.11-.2.24l-.58.5-.79.64c-.29.23-.57.45-.85.65s-.52.39-.73.54a3.57,3.57,0,0,1-.45.29A2.07,2.07,0,0,0,257,94a7.52,7.52,0,0,0,.88-.34,7.31,7.31,0,0,0,.91-.49,6.17,6.17,0,0,0,.79-.57,3.28,3.28,0,0,0,.56-.56.81.81,0,0,0,.2-.51s-.08-.06-.24-.1Zm-4.93,9.4a2.62,2.62,0,0,1-1.57-1.16,3.8,3.8,0,0,1-.52-1.72,6.89,6.89,0,0,1,0-1,5.73,5.73,0,0,1,.18-1l.44-.51.43-.55c.44-.51.91-1.06,1.44-1.64s1.07-1.16,1.65-1.71a16.84,16.84,0,0,1,1.79-1.51,8.81,8.81,0,0,1,1.88-1.08,1,1,0,0,1,.7-.08,1,1,0,0,1,.51.37,2,2,0,0,1,.31.69,4,4,0,0,1,.14.86,5.34,5.34,0,0,1,0,.8c0,.26-.05.52-.09.76s-.1.45-.16.64a1.38,1.38,0,0,1-.19.42,4.28,4.28,0,0,1-1.06.82c-.5.3-1.06.61-1.67.94l-1.51.85c-.51.29-1,.59-1.39.88a6.52,6.52,0,0,0-1,.85,1,1,0,0,0-.38.74c0,.18.17.36.47.53a.82.82,0,0,0,.23,0h.22a9,9,0,0,0,1.4-.12c.5-.08,1-.18,1.54-.31s1.05-.26,1.58-.41l1.49-.44c.34-.1.69-.2,1.06-.29s.68-.17.91-.24l.78.59a4.38,4.38,0,0,1-1.4,1.27,13.3,13.3,0,0,1-2.11,1,17.38,17.38,0,0,1-2.37.68,11.66,11.66,0,0,1-2.21.26,6.86,6.86,0,0,1-.81,0,3.83,3.83,0,0,1-.72-.14"/>
    </g>
  </g>
</svg>
